<mxfile host="65bd71144e">
    <diagram id="l96RCY0GjHvTQ--PAcMf" name="Page-1">
        <mxGraphModel dx="1973" dy="938" grid="1" gridSize="10" guides="1" tooltips="1" connect="1" arrows="1" fold="1" page="1" pageScale="1" pageWidth="850" pageHeight="1100" math="0" shadow="0">
            <root>
                <mxCell id="0"/>
                <mxCell id="1" parent="0"/>
                <mxCell id="2" value="&lt;table border=&quot;1&quot; width=&quot;100%&quot; height=&quot;100%&quot; cellpadding=&quot;4&quot; style=&quot;width:100%;height:100%;border-collapse:collapse;&quot;&gt;&lt;tbody&gt;&lt;tr&gt;&lt;th align=&quot;center&quot;&gt;Repository.Repository&lt;br&gt;&amp;lt;&amp;lt;Interface&amp;gt;&amp;gt;&lt;/th&gt;&lt;/tr&gt;&lt;tr&gt;&lt;td align=&quot;center&quot;&gt;&lt;br&gt;&lt;/td&gt;&lt;/tr&gt;&lt;tr&gt;&lt;td align=&quot;center&quot;&gt;+ add()&lt;br&gt;+ load()&lt;br&gt;+ update()&lt;br&gt;+delete()&lt;/td&gt;&lt;/tr&gt;&lt;/tbody&gt;&lt;/table&gt;" style="text;html=1;whiteSpace=wrap;strokeColor=#666666;fillColor=#f5f5f5;overflow=fill;fontColor=#333333;fillStyle=auto;" parent="1" vertex="1">
                    <mxGeometry x="280" y="40" width="200" height="160" as="geometry"/>
                </mxCell>
                <mxCell id="16" value="&lt;table border=&quot;1&quot; width=&quot;100%&quot; height=&quot;100%&quot; cellpadding=&quot;4&quot; style=&quot;width:100%;height:100%;border-collapse:collapse;&quot;&gt;&lt;tbody&gt;&lt;tr&gt;&lt;th align=&quot;center&quot;&gt;inMemoryRepo&lt;/th&gt;&lt;/tr&gt;&lt;tr&gt;&lt;td align=&quot;center&quot;&gt;- List &amp;lt;CEO&amp;gt;&lt;br&gt;- List&amp;lt;Actor&amp;gt;&lt;br&gt;-List&amp;lt;Viewer&amp;gt;&lt;br&gt;-List&amp;lt;Order&amp;gt;&lt;/td&gt;&lt;/tr&gt;&lt;tr&gt;&lt;td align=&quot;center&quot;&gt;+ add()&lt;br&gt;+ load()&lt;br&gt;+ update()&lt;br&gt;+delete()&lt;br&gt;&lt;/td&gt;&lt;/tr&gt;&lt;/tbody&gt;&lt;/table&gt;" style="text;html=1;whiteSpace=wrap;strokeColor=#666666;fillColor=#f5f5f5;overflow=fill;fillStyle=auto;fontColor=#333333;" parent="1" vertex="1">
                    <mxGeometry x="520" y="280" width="200" height="160" as="geometry"/>
                </mxCell>
                <mxCell id="17" value="&lt;table border=&quot;1&quot; width=&quot;100%&quot; height=&quot;100%&quot; cellpadding=&quot;4&quot; style=&quot;width:100%;height:100%;border-collapse:collapse;&quot;&gt;&lt;tbody&gt;&lt;tr&gt;&lt;th align=&quot;center&quot;&gt;inDataRepo&lt;/th&gt;&lt;/tr&gt;&lt;tr&gt;&lt;td align=&quot;center&quot;&gt;&lt;br&gt;&lt;/td&gt;&lt;/tr&gt;&lt;tr&gt;&lt;td align=&quot;center&quot;&gt;+ add()&lt;br&gt;+ load()&lt;br&gt;+ update()&lt;br&gt;+delete()&lt;br&gt;&lt;/td&gt;&lt;/tr&gt;&lt;/tbody&gt;&lt;/table&gt;" style="text;html=1;whiteSpace=wrap;strokeColor=#666666;fillColor=#f5f5f5;overflow=fill;fillStyle=auto;fontColor=#333333;" parent="1" vertex="1">
                    <mxGeometry x="280" y="280" width="200" height="160" as="geometry"/>
                </mxCell>
                <mxCell id="18" value="&lt;table border=&quot;1&quot; width=&quot;100%&quot; height=&quot;100%&quot; cellpadding=&quot;4&quot; style=&quot;width:100%;height:100%;border-collapse:collapse;&quot;&gt;&lt;tbody&gt;&lt;tr&gt;&lt;th align=&quot;center&quot;&gt;inDatabaseRepo&lt;br&gt;&lt;/th&gt;&lt;/tr&gt;&lt;tr&gt;&lt;td align=&quot;center&quot;&gt;&lt;br&gt;&lt;/td&gt;&lt;/tr&gt;&lt;tr&gt;&lt;td align=&quot;center&quot;&gt;+ add()&lt;br&gt;+ load()&lt;br&gt;+ update()&lt;br&gt;+delete()&lt;br&gt;&lt;/td&gt;&lt;/tr&gt;&lt;/tbody&gt;&lt;/table&gt;" style="text;html=1;whiteSpace=wrap;strokeColor=#666666;fillColor=#f5f5f5;overflow=fill;fillStyle=auto;fontColor=#333333;" parent="1" vertex="1">
                    <mxGeometry x="40" y="280" width="200" height="160" as="geometry"/>
                </mxCell>
                <mxCell id="23" style="edgeStyle=none;html=1;exitX=0;exitY=0.75;exitDx=0;exitDy=0;entryX=0;entryY=1;entryDx=0;entryDy=0;" parent="1" source="2" target="2" edge="1">
                    <mxGeometry relative="1" as="geometry"/>
                </mxCell>
                <mxCell id="24" value="&lt;table border=&quot;1&quot; width=&quot;100%&quot; height=&quot;100%&quot; cellpadding=&quot;4&quot; style=&quot;width:100%;height:100%;border-collapse:collapse;&quot;&gt;&lt;tbody&gt;&lt;tr&gt;&lt;th align=&quot;center&quot;&gt;Controller&lt;/th&gt;&lt;/tr&gt;&lt;tr&gt;&lt;td align=&quot;center&quot;&gt;&lt;br&gt;&lt;/td&gt;&lt;/tr&gt;&lt;tr&gt;&lt;td align=&quot;center&quot;&gt;&lt;br&gt;&lt;/td&gt;&lt;/tr&gt;&lt;/tbody&gt;&lt;/table&gt;" style="text;html=1;whiteSpace=wrap;strokeColor=#666666;fillColor=#f5f5f5;overflow=fill;fillStyle=auto;fontColor=#333333;" parent="1" vertex="1">
                    <mxGeometry x="280" y="720" width="200" height="160" as="geometry"/>
                </mxCell>
                <mxCell id="25" value="&lt;table border=&quot;1&quot; width=&quot;100%&quot; height=&quot;100%&quot; cellpadding=&quot;4&quot; style=&quot;width:100%;height:100%;border-collapse:collapse;&quot;&gt;&lt;tbody&gt;&lt;tr&gt;&lt;th align=&quot;center&quot;&gt;Actor&lt;/th&gt;&lt;/tr&gt;&lt;tr&gt;&lt;td align=&quot;center&quot;&gt;- String name&lt;br&gt;- int age&lt;br&gt;- E-Mail email&lt;br&gt;- int salary&lt;/td&gt;&lt;/tr&gt;&lt;tr&gt;&lt;td align=&quot;center&quot;&gt;+ schedule()&lt;br&gt;&lt;/td&gt;&lt;/tr&gt;&lt;/tbody&gt;&lt;/table&gt;" style="text;html=1;whiteSpace=wrap;strokeColor=#666666;fillColor=#f5f5f5;overflow=fill;fillStyle=auto;fontColor=#333333;" parent="1" vertex="1">
                    <mxGeometry x="800" y="280" width="200" height="160" as="geometry"/>
                </mxCell>
                <mxCell id="32" value="&lt;table border=&quot;1&quot; width=&quot;100%&quot; height=&quot;100%&quot; cellpadding=&quot;4&quot; style=&quot;width:100%;height:100%;border-collapse:collapse;&quot;&gt;&lt;tbody&gt;&lt;tr&gt;&lt;th align=&quot;center&quot;&gt;Ticket&lt;br&gt;&lt;/th&gt;&lt;/tr&gt;&lt;tr&gt;&lt;td align=&quot;center&quot;&gt;- String showName&lt;br&gt;- String viewerName&lt;br&gt;- int price&lt;br&gt;- Seat seat&lt;br&gt;&lt;/td&gt;&lt;/tr&gt;&lt;tr&gt;&lt;td align=&quot;center&quot;&gt;&lt;br&gt;&lt;/td&gt;&lt;/tr&gt;&lt;/tbody&gt;&lt;/table&gt;" style="text;html=1;whiteSpace=wrap;strokeColor=#666666;fillColor=#f5f5f5;overflow=fill;fillStyle=auto;fontColor=#333333;" parent="1" vertex="1">
                    <mxGeometry x="1160" y="880" width="200" height="160" as="geometry"/>
                </mxCell>
                <mxCell id="33" value="&lt;table border=&quot;1&quot; width=&quot;100%&quot; height=&quot;100%&quot; cellpadding=&quot;4&quot; style=&quot;width:100%;height:100%;border-collapse:collapse;&quot;&gt;&lt;tbody&gt;&lt;tr&gt;&lt;th align=&quot;center&quot;&gt;Auditorium&lt;br&gt;&lt;/th&gt;&lt;/tr&gt;&lt;tr&gt;&lt;td align=&quot;center&quot;&gt;- String name&lt;br&gt;- int capacity&lt;br&gt;- int[][] seatPlace&lt;/td&gt;&lt;/tr&gt;&lt;tr&gt;&lt;td align=&quot;center&quot;&gt;&lt;br&gt;&lt;/td&gt;&lt;/tr&gt;&lt;/tbody&gt;&lt;/table&gt;" style="text;html=1;whiteSpace=wrap;strokeColor=#666666;fillColor=#f5f5f5;overflow=fill;fillStyle=auto;fontColor=#333333;" parent="1" vertex="1">
                    <mxGeometry x="1040" y="520" width="200" height="160" as="geometry"/>
                </mxCell>
                <mxCell id="34" value="&lt;table border=&quot;1&quot; width=&quot;100%&quot; height=&quot;100%&quot; cellpadding=&quot;4&quot; style=&quot;width:100%;height:100%;border-collapse:collapse;&quot;&gt;&lt;tbody&gt;&lt;tr&gt;&lt;th align=&quot;center&quot;&gt;UI&lt;br&gt;&lt;/th&gt;&lt;/tr&gt;&lt;tr&gt;&lt;td align=&quot;center&quot;&gt;&lt;br&gt;&lt;/td&gt;&lt;/tr&gt;&lt;tr&gt;&lt;td align=&quot;center&quot;&gt;+ run()&lt;/td&gt;&lt;/tr&gt;&lt;/tbody&gt;&lt;/table&gt;" style="text;html=1;whiteSpace=wrap;strokeColor=#666666;fillColor=#f5f5f5;overflow=fill;fillStyle=auto;fontColor=#333333;" parent="1" vertex="1">
                    <mxGeometry x="560" y="720" width="200" height="160" as="geometry"/>
                </mxCell>
                <mxCell id="37" value="&lt;table border=&quot;1&quot; width=&quot;100%&quot; height=&quot;100%&quot; cellpadding=&quot;4&quot; style=&quot;width:100%;height:100%;border-collapse:collapse;&quot;&gt;&lt;tbody&gt;&lt;tr&gt;&lt;th align=&quot;center&quot;&gt;Order&lt;/th&gt;&lt;/tr&gt;&lt;tr&gt;&lt;td align=&quot;center&quot;&gt;- int ID&lt;br&gt;- String date&lt;br&gt;- String showName&lt;br&gt;- List&amp;lt;Seat&amp;gt; seats&lt;br&gt;&lt;/td&gt;&lt;/tr&gt;&lt;tr&gt;&lt;td align=&quot;center&quot;&gt;+ printTicket()&lt;/td&gt;&lt;/tr&gt;&lt;/tbody&gt;&lt;/table&gt;" style="text;html=1;whiteSpace=wrap;strokeColor=#666666;fillColor=#f5f5f5;overflow=fill;fillStyle=auto;fontColor=#333333;" parent="1" vertex="1">
                    <mxGeometry x="1280" y="640" width="200" height="160" as="geometry"/>
                </mxCell>
                <mxCell id="38" value="&lt;table border=&quot;1&quot; width=&quot;100%&quot; height=&quot;100%&quot; cellpadding=&quot;4&quot; style=&quot;width:100%;height:100%;border-collapse:collapse;&quot;&gt;&lt;tbody&gt;&lt;tr&gt;&lt;th align=&quot;center&quot;&gt;CEO&lt;/th&gt;&lt;/tr&gt;&lt;tr&gt;&lt;td align=&quot;center&quot;&gt;- String name&lt;br&gt;- int age&lt;br&gt;- E-Mail email&lt;br&gt;&lt;/td&gt;&lt;/tr&gt;&lt;tr&gt;&lt;td align=&quot;center&quot;&gt;+ hireActor()&lt;br&gt;+ fireActor()&lt;br&gt;+ adjustSalary()&lt;br&gt;+ createShow()&lt;br&gt;+ changeTicketPrice()&lt;br&gt;&lt;/td&gt;&lt;/tr&gt;&lt;/tbody&gt;&lt;/table&gt;" style="text;html=1;whiteSpace=wrap;strokeColor=#666666;fillColor=#f5f5f5;overflow=fill;fillStyle=auto;fontColor=#333333;" parent="1" vertex="1">
                    <mxGeometry x="1040" y="280" width="200" height="160" as="geometry"/>
                </mxCell>
                <mxCell id="39" value="&lt;table border=&quot;1&quot; width=&quot;100%&quot; height=&quot;100%&quot; cellpadding=&quot;4&quot; style=&quot;width:100%;height:100%;border-collapse:collapse;&quot;&gt;&lt;tbody&gt;&lt;tr&gt;&lt;th align=&quot;center&quot;&gt;E-Mail&lt;/th&gt;&lt;/tr&gt;&lt;tr&gt;&lt;td align=&quot;center&quot;&gt;- String mail&lt;br&gt;- String password&lt;br&gt;&lt;/td&gt;&lt;/tr&gt;&lt;tr&gt;&lt;td align=&quot;center&quot;&gt;&lt;br&gt;&lt;/td&gt;&lt;/tr&gt;&lt;/tbody&gt;&lt;/table&gt;" style="text;html=1;whiteSpace=wrap;strokeColor=#666666;fillColor=#f5f5f5;overflow=fill;fillStyle=auto;fontColor=#333333;" parent="1" vertex="1">
                    <mxGeometry x="1517.5" y="40" width="200" height="160" as="geometry"/>
                </mxCell>
                <mxCell id="41" value="&lt;table border=&quot;1&quot; width=&quot;100%&quot; height=&quot;100%&quot; cellpadding=&quot;4&quot; style=&quot;width:100%;height:100%;border-collapse:collapse;&quot;&gt;&lt;tbody&gt;&lt;tr&gt;&lt;th align=&quot;center&quot;&gt;Person&lt;br&gt;&amp;lt;&amp;lt;Interface&amp;gt;&amp;gt;&lt;/th&gt;&lt;/tr&gt;&lt;tr&gt;&lt;td align=&quot;center&quot;&gt;- String name&lt;br&gt;- int age&lt;br&gt;- E-Mail email&lt;br&gt;&lt;/td&gt;&lt;/tr&gt;&lt;tr&gt;&lt;td align=&quot;center&quot;&gt;&lt;br&gt;&lt;/td&gt;&lt;/tr&gt;&lt;/tbody&gt;&lt;/table&gt;" style="text;html=1;whiteSpace=wrap;strokeColor=#666666;fillColor=#f5f5f5;overflow=fill;fillStyle=auto;fontColor=#333333;" parent="1" vertex="1">
                    <mxGeometry x="1040" y="40" width="200" height="160" as="geometry"/>
                </mxCell>
                <mxCell id="47" value="&lt;table border=&quot;1&quot; width=&quot;100%&quot; height=&quot;100%&quot; cellpadding=&quot;4&quot; style=&quot;width:100%;height:100%;border-collapse:collapse;&quot;&gt;&lt;tbody&gt;&lt;tr&gt;&lt;th align=&quot;center&quot;&gt;Seat&lt;/th&gt;&lt;/tr&gt;&lt;tr&gt;&lt;td align=&quot;center&quot;&gt;- int row&lt;br&gt;- int seat&lt;/td&gt;&lt;/tr&gt;&lt;tr&gt;&lt;td align=&quot;center&quot;&gt;&lt;br&gt;&lt;/td&gt;&lt;/tr&gt;&lt;/tbody&gt;&lt;/table&gt;" style="text;html=1;whiteSpace=wrap;strokeColor=#666666;fillColor=#f5f5f5;overflow=fill;fillStyle=auto;fontColor=#333333;" parent="1" vertex="1">
                    <mxGeometry x="1400" y="880" width="200" height="160" as="geometry"/>
                </mxCell>
                <mxCell id="64" value="" style="endArrow=diamondThin;endFill=1;endSize=24;html=1;exitX=1;exitY=0.5;exitDx=0;exitDy=0;entryX=0;entryY=0.5;entryDx=0;entryDy=0;" parent="1" source="41" target="39" edge="1">
                    <mxGeometry width="160" relative="1" as="geometry">
                        <mxPoint x="1300" y="119.41" as="sourcePoint"/>
                        <mxPoint x="1470" y="119" as="targetPoint"/>
                    </mxGeometry>
                </mxCell>
                <mxCell id="66" value="" style="endArrow=block;endSize=16;endFill=0;html=1;exitX=0.5;exitY=0;exitDx=0;exitDy=0;entryX=0;entryY=1;entryDx=0;entryDy=0;" parent="1" source="25" target="41" edge="1">
                    <mxGeometry width="160" relative="1" as="geometry">
                        <mxPoint x="1210" y="320" as="sourcePoint"/>
                        <mxPoint x="1370" y="320" as="targetPoint"/>
                    </mxGeometry>
                </mxCell>
                <mxCell id="67" value="" style="endArrow=block;endSize=16;endFill=0;html=1;exitX=0.5;exitY=0;exitDx=0;exitDy=0;entryX=1;entryY=1;entryDx=0;entryDy=0;" parent="1" source="26" target="41" edge="1">
                    <mxGeometry width="160" relative="1" as="geometry">
                        <mxPoint x="1127.5" y="250" as="sourcePoint"/>
                        <mxPoint x="1222.5" y="170" as="targetPoint"/>
                    </mxGeometry>
                </mxCell>
                <mxCell id="68" value="" style="endArrow=block;endSize=16;endFill=0;html=1;exitX=0.5;exitY=0;exitDx=0;exitDy=0;entryX=0.5;entryY=1;entryDx=0;entryDy=0;" parent="1" source="38" target="41" edge="1">
                    <mxGeometry width="160" relative="1" as="geometry">
                        <mxPoint x="1240" y="240" as="sourcePoint"/>
                        <mxPoint x="1335" y="160" as="targetPoint"/>
                    </mxGeometry>
                </mxCell>
                <mxCell id="26" value="&lt;table border=&quot;1&quot; width=&quot;100%&quot; height=&quot;100%&quot; cellpadding=&quot;4&quot; style=&quot;width:100%;height:100%;border-collapse:collapse;&quot;&gt;&lt;tbody&gt;&lt;tr&gt;&lt;th align=&quot;center&quot;&gt;Viewer&lt;/th&gt;&lt;/tr&gt;&lt;tr&gt;&lt;td align=&quot;center&quot;&gt;- String name&lt;br&gt;- int age&lt;br&gt;- E-Mail email&lt;br&gt;&lt;/td&gt;&lt;/tr&gt;&lt;tr&gt;&lt;td align=&quot;center&quot;&gt;+ createOrder()&lt;br&gt;+ viewOrders()&lt;br&gt;&lt;/td&gt;&lt;/tr&gt;&lt;/tbody&gt;&lt;/table&gt;" style="text;html=1;whiteSpace=wrap;strokeColor=#666666;fillColor=#f5f5f5;overflow=fill;fillStyle=auto;fontColor=#333333;" parent="1" vertex="1">
                    <mxGeometry x="1280" y="280" width="200" height="160" as="geometry"/>
                </mxCell>
                <mxCell id="79" value="" style="endArrow=none;startArrow=none;endFill=0;startFill=0;endSize=8;html=1;verticalAlign=bottom;labelBackgroundColor=none;strokeWidth=3;exitX=0.5;exitY=0;exitDx=0;exitDy=0;entryX=0.5;entryY=1;entryDx=0;entryDy=0;" parent="1" source="33" target="38" edge="1">
                    <mxGeometry width="160" relative="1" as="geometry">
                        <mxPoint x="1260" y="560" as="sourcePoint"/>
                        <mxPoint x="1420" y="560" as="targetPoint"/>
                    </mxGeometry>
                </mxCell>
                <mxCell id="81" value="" style="endArrow=diamondThin;endFill=1;endSize=24;html=1;exitX=0.5;exitY=1;exitDx=0;exitDy=0;entryX=0.5;entryY=0;entryDx=0;entryDy=0;" parent="1" source="37" target="32" edge="1">
                    <mxGeometry width="160" relative="1" as="geometry">
                        <mxPoint x="1260" y="870" as="sourcePoint"/>
                        <mxPoint x="1420" y="870" as="targetPoint"/>
                    </mxGeometry>
                </mxCell>
                <mxCell id="82" value="" style="endArrow=diamondThin;endFill=0;endSize=24;html=1;exitX=0.5;exitY=1;exitDx=0;exitDy=0;entryX=0.5;entryY=0;entryDx=0;entryDy=0;" parent="1" source="37" target="47" edge="1">
                    <mxGeometry width="160" relative="1" as="geometry">
                        <mxPoint x="1260" y="870" as="sourcePoint"/>
                        <mxPoint x="1420" y="870" as="targetPoint"/>
                    </mxGeometry>
                </mxCell>
                <mxCell id="84" value="" style="endArrow=block;endSize=16;endFill=0;html=1;exitX=0.5;exitY=0;exitDx=0;exitDy=0;entryX=0;entryY=1;entryDx=0;entryDy=0;" parent="1" source="18" target="2" edge="1">
                    <mxGeometry width="160" relative="1" as="geometry">
                        <mxPoint x="240" y="220" as="sourcePoint"/>
                        <mxPoint x="375" y="100" as="targetPoint"/>
                    </mxGeometry>
                </mxCell>
                <mxCell id="85" value="" style="endArrow=block;endSize=16;endFill=0;html=1;exitX=0.5;exitY=0;exitDx=0;exitDy=0;entryX=1;entryY=1;entryDx=0;entryDy=0;" parent="1" source="16" target="2" edge="1">
                    <mxGeometry width="160" relative="1" as="geometry">
                        <mxPoint x="150" y="290" as="sourcePoint"/>
                        <mxPoint x="290" y="210" as="targetPoint"/>
                    </mxGeometry>
                </mxCell>
                <mxCell id="86" value="" style="endArrow=block;endSize=16;endFill=0;html=1;exitX=0.5;exitY=0;exitDx=0;exitDy=0;entryX=0.5;entryY=1;entryDx=0;entryDy=0;" parent="1" source="17" target="2" edge="1">
                    <mxGeometry width="160" relative="1" as="geometry">
                        <mxPoint x="160" y="300" as="sourcePoint"/>
                        <mxPoint x="300" y="220" as="targetPoint"/>
                    </mxGeometry>
                </mxCell>
                <mxCell id="87" value="" style="endArrow=none;startArrow=none;endFill=0;startFill=0;endSize=8;html=1;verticalAlign=bottom;labelBackgroundColor=none;strokeWidth=3;exitX=0.5;exitY=1;exitDx=0;exitDy=0;entryX=0;entryY=0;entryDx=0;entryDy=0;" parent="1" source="18" target="91" edge="1">
                    <mxGeometry width="160" relative="1" as="geometry">
                        <mxPoint x="300" y="550" as="sourcePoint"/>
                        <mxPoint x="460" y="550" as="targetPoint"/>
                    </mxGeometry>
                </mxCell>
                <mxCell id="89" value="" style="endArrow=none;startArrow=none;endFill=0;startFill=0;endSize=8;html=1;verticalAlign=bottom;labelBackgroundColor=none;strokeWidth=3;exitX=0.5;exitY=1;exitDx=0;exitDy=0;entryX=0.5;entryY=0;entryDx=0;entryDy=0;" parent="1" source="17" target="91" edge="1">
                    <mxGeometry width="160" relative="1" as="geometry">
                        <mxPoint x="300" y="550" as="sourcePoint"/>
                        <mxPoint x="460" y="550" as="targetPoint"/>
                    </mxGeometry>
                </mxCell>
                <mxCell id="90" value="" style="endArrow=none;startArrow=none;endFill=0;startFill=0;endSize=8;html=1;verticalAlign=bottom;labelBackgroundColor=none;strokeWidth=3;exitX=1;exitY=0;exitDx=0;exitDy=0;entryX=0.5;entryY=1;entryDx=0;entryDy=0;" parent="1" source="91" target="16" edge="1">
                    <mxGeometry width="160" relative="1" as="geometry">
                        <mxPoint x="300" y="550" as="sourcePoint"/>
                        <mxPoint x="460" y="550" as="targetPoint"/>
                    </mxGeometry>
                </mxCell>
                <mxCell id="91" value="&lt;table border=&quot;1&quot; width=&quot;100%&quot; height=&quot;100%&quot; cellpadding=&quot;4&quot; style=&quot;width:100%;height:100%;border-collapse:collapse;&quot;&gt;&lt;tbody&gt;&lt;tr&gt;&lt;th align=&quot;center&quot;&gt;Service&lt;/th&gt;&lt;/tr&gt;&lt;tr&gt;&lt;td align=&quot;center&quot;&gt;&lt;br&gt;&lt;/td&gt;&lt;/tr&gt;&lt;tr&gt;&lt;td align=&quot;center&quot;&gt;+ add()&lt;br&gt;+ load()&lt;br&gt;+ update()&lt;br&gt;+ delete()&lt;br&gt;+ loginHistory()&lt;br&gt;+ showUpcomingEvents()&lt;br&gt;+ login()&lt;br&gt;+ createAccount()&lt;br&gt;&lt;/td&gt;&lt;/tr&gt;&lt;/tbody&gt;&lt;/table&gt;" style="text;html=1;whiteSpace=wrap;strokeColor=#666666;fillColor=#f5f5f5;overflow=fill;fillStyle=auto;fontColor=#333333;" vertex="1" parent="1">
                    <mxGeometry x="280" y="480" width="200" height="200" as="geometry"/>
                </mxCell>
                <mxCell id="92" value="" style="endArrow=none;startArrow=none;endFill=0;startFill=0;endSize=8;html=1;verticalAlign=bottom;labelBackgroundColor=none;strokeWidth=3;exitX=0.5;exitY=0;exitDx=0;exitDy=0;entryX=0.5;entryY=1;entryDx=0;entryDy=0;" edge="1" parent="1" source="24" target="91">
                    <mxGeometry width="160" relative="1" as="geometry">
                        <mxPoint x="490" y="490" as="sourcePoint"/>
                        <mxPoint x="630" y="450" as="targetPoint"/>
                    </mxGeometry>
                </mxCell>
                <mxCell id="93" value="" style="endArrow=none;startArrow=none;endFill=0;startFill=0;endSize=8;html=1;verticalAlign=bottom;labelBackgroundColor=none;strokeWidth=3;exitX=1;exitY=0.5;exitDx=0;exitDy=0;entryX=0;entryY=0.5;entryDx=0;entryDy=0;" edge="1" parent="1" source="24" target="34">
                    <mxGeometry width="160" relative="1" as="geometry">
                        <mxPoint x="500" y="500" as="sourcePoint"/>
                        <mxPoint x="640" y="460" as="targetPoint"/>
                    </mxGeometry>
                </mxCell>
                <mxCell id="94" value="&lt;table border=&quot;1&quot; width=&quot;100%&quot; height=&quot;100%&quot; cellpadding=&quot;4&quot; style=&quot;width:100%;height:100%;border-collapse:collapse;&quot;&gt;&lt;tbody&gt;&lt;tr&gt;&lt;th align=&quot;center&quot;&gt;Show&lt;/th&gt;&lt;/tr&gt;&lt;tr&gt;&lt;td align=&quot;center&quot;&gt;- String name&lt;br&gt;- Auditorium audit&lt;br&gt;- Map&amp;lt;Actors, Role&amp;gt;&lt;/td&gt;&lt;/tr&gt;&lt;tr&gt;&lt;td align=&quot;center&quot;&gt;&lt;br&gt;&lt;/td&gt;&lt;/tr&gt;&lt;/tbody&gt;&lt;/table&gt;" style="text;html=1;whiteSpace=wrap;strokeColor=#666666;fillColor=#f5f5f5;overflow=fill;fillStyle=auto;fontColor=#333333;" vertex="1" parent="1">
                    <mxGeometry x="800" y="520" width="200" height="160" as="geometry"/>
                </mxCell>
                <mxCell id="95" value="" style="endArrow=none;startArrow=none;endFill=0;startFill=0;endSize=8;html=1;verticalAlign=bottom;labelBackgroundColor=none;strokeWidth=3;exitX=0.5;exitY=0;exitDx=0;exitDy=0;entryX=0.5;entryY=1;entryDx=0;entryDy=0;" edge="1" parent="1" source="94" target="25">
                    <mxGeometry width="160" relative="1" as="geometry">
                        <mxPoint x="1150" y="570" as="sourcePoint"/>
                        <mxPoint x="1150" y="490.0000000000001" as="targetPoint"/>
                    </mxGeometry>
                </mxCell>
                <mxCell id="98" value="" style="endArrow=none;html=1;rounded=0;align=center;verticalAlign=top;endFill=0;labelBackgroundColor=none;entryX=0;entryY=0.5;entryDx=0;entryDy=0;exitX=0.5;exitY=1;exitDx=0;exitDy=0;" edge="1" parent="1" source="94" target="37">
                    <mxGeometry relative="1" as="geometry">
                        <mxPoint x="990" y="759.62" as="sourcePoint"/>
                        <mxPoint x="1150" y="759.62" as="targetPoint"/>
                        <Array as="points">
                            <mxPoint x="900" y="720"/>
                        </Array>
                    </mxGeometry>
                </mxCell>
                <mxCell id="100" value="1 .. n" style="resizable=0;html=1;align=left;verticalAlign=top;labelBackgroundColor=none;" connectable="0" vertex="1" parent="98">
                    <mxGeometry x="-1" relative="1" as="geometry">
                        <mxPoint x="160" y="40" as="offset"/>
                    </mxGeometry>
                </mxCell>
                <mxCell id="102" value="" style="endArrow=none;html=1;rounded=0;align=center;verticalAlign=top;endFill=0;labelBackgroundColor=none;entryX=0.5;entryY=1;entryDx=0;entryDy=0;exitX=0.5;exitY=0;exitDx=0;exitDy=0;" edge="1" parent="1" source="37" target="26">
                    <mxGeometry relative="1" as="geometry">
                        <mxPoint x="1337.5" y="550" as="sourcePoint"/>
                        <mxPoint x="1717.5" y="590" as="targetPoint"/>
                    </mxGeometry>
                </mxCell>
                <mxCell id="103" value="1 .. n" style="resizable=0;html=1;align=left;verticalAlign=top;labelBackgroundColor=none;" connectable="0" vertex="1" parent="102">
                    <mxGeometry x="-1" relative="1" as="geometry">
                        <mxPoint x="10" y="-90" as="offset"/>
                    </mxGeometry>
                </mxCell>
                <mxCell id="104" value="1 .. 1" style="resizable=0;html=1;align=left;verticalAlign=top;labelBackgroundColor=none;" connectable="0" vertex="1" parent="1">
                    <mxGeometry x="1360" y="120" as="geometry"/>
                </mxCell>
                <mxCell id="105" value="1 .. n" style="resizable=0;html=1;align=left;verticalAlign=top;labelBackgroundColor=none;" connectable="0" vertex="1" parent="1">
                    <mxGeometry x="1140" y="480" as="geometry"/>
                </mxCell>
                <mxCell id="106" value="1&amp;nbsp;.. n" style="resizable=0;html=1;align=left;verticalAlign=top;labelBackgroundColor=none;" connectable="0" vertex="1" parent="1">
                    <mxGeometry x="900" y="480" as="geometry"/>
                </mxCell>
                <mxCell id="107" value="1 .. 1" style="resizable=0;html=1;align=left;verticalAlign=top;labelBackgroundColor=none;" connectable="0" vertex="1" parent="1">
                    <mxGeometry x="1280" y="800" as="geometry">
                        <mxPoint x="45" y="31" as="offset"/>
                    </mxGeometry>
                </mxCell>
                <mxCell id="108" value="1 .. n" style="resizable=0;html=1;align=left;verticalAlign=top;labelBackgroundColor=none;" connectable="0" vertex="1" parent="1">
                    <mxGeometry x="1420" y="800" as="geometry">
                        <mxPoint x="45" y="31" as="offset"/>
                    </mxGeometry>
                </mxCell>
            </root>
        </mxGraphModel>
    </diagram>
</mxfile>